<svg width="65" height="65" viewBox="0 0 65 65" fill="none" xmlns="http://www.w3.org/2000/svg">
<g clip-path="url(#clip0_65_127)">
<path d="M14.8014 0.00027943H49.6995C51.6444 -0.00397221 53.571 0.375992 55.3687 1.11832C57.1664 1.86065 58.7998 2.95072 60.1751 4.326C61.5503 5.70128 62.6404 7.33466 63.3828 9.13236C64.1251 10.9301 64.505 12.8567 64.5008 14.8016V49.6997C64.505 51.6446 64.1251 53.5713 63.3828 55.369C62.6404 57.1667 61.5503 58.8001 60.1751 60.1753C58.7998 61.5506 57.1664 62.6407 55.3687 63.383C53.571 64.1253 51.6444 64.5053 49.6995 64.5011H14.8014C12.8564 64.5053 10.9298 64.1253 9.13211 63.383C7.33441 62.6407 5.70104 61.5506 4.32576 60.1753C2.95048 58.8001 1.86039 57.1667 1.11806 55.369C0.375729 53.5713 -0.00421635 51.6446 3.52912e-05 49.6997V14.8016C-0.00421635 12.8567 0.375729 10.9301 1.11806 9.13236C1.86039 7.33466 2.95048 5.70128 4.32576 4.326C5.70104 2.95072 7.33441 1.86065 9.13211 1.11832C10.9298 0.375992 12.8564 -0.00397221 14.8014 0.00027943Z" fill="#8AD9F2"/>
<path d="M14.132 18.3425C13.7923 18.3425 13.472 18.4013 13.1688 18.5217L19.2383 24.7703L25.3751 31.1307L25.4869 31.2655L25.6661 31.4446L25.8452 31.6238L26.2036 32.0043L31.4668 37.4016C31.5542 37.456 31.8086 37.6911 32.0071 37.7907C32.263 37.9183 32.5396 38.0366 32.8249 38.0466C33.133 38.0573 33.4476 37.9692 33.725 37.8344C33.9328 37.7334 34.0253 37.5886 34.2661 37.4023L40.3577 31.1093L46.5168 24.7711L52.4515 18.6572C52.0665 18.4488 51.6351 18.3408 51.1973 18.3432L14.132 18.3425ZM12.273 19.1036C11.6258 19.7171 11.2202 20.6387 11.2202 21.6793V42.1939C11.2202 43.036 11.4904 43.8014 11.9369 44.3884L12.7876 43.5821L19.1258 37.4231L24.7473 31.9807L24.6355 31.8467L18.4765 25.5085L12.3174 19.1481L12.273 19.1036ZM53.2578 19.3057L47.2557 25.5092L41.1188 31.8474L41.007 31.9592L46.8522 37.6252L53.1904 43.7842L53.5709 44.1425C53.9121 43.595 54.1084 42.9206 54.1084 42.1939V21.6793C54.1084 20.752 53.7874 19.9106 53.2578 19.3057ZM25.464 32.7203L19.8654 38.1627L13.5049 44.3217L12.6987 45.1058C13.1237 45.3796 13.6074 45.5537 14.132 45.5537H51.1973C51.828 45.5537 52.3999 45.3115 52.8772 44.9266L52.4744 44.5238L46.114 38.3648L40.2689 32.721L35.0057 38.1405C34.7212 38.3297 34.5305 38.5389 34.2525 38.6672C33.8045 38.8743 33.3143 39.0492 32.8213 39.042C32.3268 39.0341 31.8416 38.8407 31.398 38.6228C31.1751 38.5131 31.0561 38.4042 30.7953 38.1856L25.464 32.7203Z" fill="white"/>
</g>
<defs>
<clipPath id="clip0_65_127">
<rect width="64.5" height="64.5" fill="white"/>
</clipPath>
</defs>
</svg>
